<svg xmlns="http://www.w3.org/2000/svg" viewBox="0 0 1024 1024"><defs><linearGradient id="bez" x1="0" x2="0" y1="0" y2="1"><stop offset="0" stop-color="#262B31"/><stop offset="1" stop-color="#14171B"/></linearGradient><filter id="g2" width="220%" height="220%" x="-60%" y="-60%"><feGaussianBlur stdDeviation="10"/></filter></defs><rect width="1024" height="1024" fill="url(#bez)" rx="200"/><rect width="1004" height="1004" x="10" y="10" fill="none" stroke="#3C434C" stroke-width="6" rx="192"/><rect width="972" height="972" x="26" y="26" fill="none" stroke="#0A0C0E" stroke-width="8" rx="180"/><circle cx="880" cy="134" r="20" fill="#FF4040"/><circle cx="880" cy="134" r="20" fill="#FF4040" filter="url(#g2)" opacity=".5"/><text x="824" y="152" fill="#4A525C" font-family="DejaVu Sans Mono" font-size="44" font-weight="bold" text-anchor="end">TX</text><rect width="840" height="386" x="92" y="208" fill="#0B0D07" stroke="#000" stroke-width="10" rx="26"/><rect width="840" height="386" x="92" y="208" fill="#FFB300" opacity=".05" rx="26"/><g transform="skewX(-3)"><polygon fill="#251B07" points="157 291 172 276 204 276 219 291 204 306 172 306"/><polygon fill="#251B07" points="157 401 172 386 204 386 219 401 204 416 172 416"/><polygon fill="#251B07" points="157 511 172 496 204 496 219 511 204 526 172 526"/><polygon fill="#251B07" points="153 295 168 310 168 382 153 397 138 382 138 310"/><polygon fill="#251B07" points="223 295 238 310 238 382 223 397 208 382 208 310"/><polygon fill="#251B07" points="153 405 168 420 168 492 153 507 138 492 138 420"/><polygon fill="#251B07" points="223 405 238 420 238 492 223 507 208 492 208 420"/><polygon fill="#FFB300" points="223 295 238 310 238 382 223 397 208 382 208 310" filter="url(#g2)" opacity=".55"/><polygon fill="#FFB300" points="223 295 238 310 238 382 223 397 208 382 208 310"/><polygon fill="#FFB300" points="223 405 238 420 238 492 223 507 208 492 208 420" filter="url(#g2)" opacity=".55"/><polygon fill="#FFB300" points="223 405 238 420 238 492 223 507 208 492 208 420"/><polygon fill="#251B07" points="283 291 298 276 330 276 345 291 330 306 298 306"/><polygon fill="#251B07" points="283 401 298 386 330 386 345 401 330 416 298 416"/><polygon fill="#251B07" points="283 511 298 496 330 496 345 511 330 526 298 526"/><polygon fill="#251B07" points="279 295 294 310 294 382 279 397 264 382 264 310"/><polygon fill="#251B07" points="349 295 364 310 364 382 349 397 334 382 334 310"/><polygon fill="#251B07" points="279 405 294 420 294 492 279 507 264 492 264 420"/><polygon fill="#251B07" points="349 405 364 420 364 492 349 507 334 492 334 420"/><polygon fill="#FFB300" points="283 401 298 386 330 386 345 401 330 416 298 416" filter="url(#g2)" opacity=".55"/><polygon fill="#FFB300" points="283 401 298 386 330 386 345 401 330 416 298 416"/><polygon fill="#FFB300" points="279 295 294 310 294 382 279 397 264 382 264 310" filter="url(#g2)" opacity=".55"/><polygon fill="#FFB300" points="279 295 294 310 294 382 279 397 264 382 264 310"/><polygon fill="#FFB300" points="349 295 364 310 364 382 349 397 334 382 334 310" filter="url(#g2)" opacity=".55"/><polygon fill="#FFB300" points="349 295 364 310 364 382 349 397 334 382 334 310"/><polygon fill="#FFB300" points="349 405 364 420 364 492 349 507 334 492 334 420" filter="url(#g2)" opacity=".55"/><polygon fill="#FFB300" points="349 405 364 420 364 492 349 507 334 492 334 420"/><circle cx="388" cy="512" r="16" fill="#FFB300"/><circle cx="388" cy="512" r="16" fill="#FFB300" filter="url(#g2)" opacity=".55"/><polygon fill="#251B07" points="453 291 468 276 500 276 515 291 500 306 468 306"/><polygon fill="#251B07" points="453 401 468 386 500 386 515 401 500 416 468 416"/><polygon fill="#251B07" points="453 511 468 496 500 496 515 511 500 526 468 526"/><polygon fill="#251B07" points="449 295 464 310 464 382 449 397 434 382 434 310"/><polygon fill="#251B07" points="519 295 534 310 534 382 519 397 504 382 504 310"/><polygon fill="#251B07" points="449 405 464 420 464 492 449 507 434 492 434 420"/><polygon fill="#251B07" points="519 405 534 420 534 492 519 507 504 492 504 420"/><polygon fill="#FFB300" points="453 291 468 276 500 276 515 291 500 306 468 306" filter="url(#g2)" opacity=".55"/><polygon fill="#FFB300" points="453 291 468 276 500 276 515 291 500 306 468 306"/><polygon fill="#FFB300" points="453 511 468 496 500 496 515 511 500 526 468 526" filter="url(#g2)" opacity=".55"/><polygon fill="#FFB300" points="453 511 468 496 500 496 515 511 500 526 468 526"/><polygon fill="#FFB300" points="449 295 464 310 464 382 449 397 434 382 434 310" filter="url(#g2)" opacity=".55"/><polygon fill="#FFB300" points="449 295 464 310 464 382 449 397 434 382 434 310"/><polygon fill="#FFB300" points="519 295 534 310 534 382 519 397 504 382 504 310" filter="url(#g2)" opacity=".55"/><polygon fill="#FFB300" points="519 295 534 310 534 382 519 397 504 382 504 310"/><polygon fill="#FFB300" points="449 405 464 420 464 492 449 507 434 492 434 420" filter="url(#g2)" opacity=".55"/><polygon fill="#FFB300" points="449 405 464 420 464 492 449 507 434 492 434 420"/><polygon fill="#FFB300" points="519 405 534 420 534 492 519 507 504 492 504 420" filter="url(#g2)" opacity=".55"/><polygon fill="#FFB300" points="519 405 534 420 534 492 519 507 504 492 504 420"/><polygon fill="#251B07" points="579 291 594 276 626 276 641 291 626 306 594 306"/><polygon fill="#251B07" points="579 401 594 386 626 386 641 401 626 416 594 416"/><polygon fill="#251B07" points="579 511 594 496 626 496 641 511 626 526 594 526"/><polygon fill="#251B07" points="575 295 590 310 590 382 575 397 560 382 560 310"/><polygon fill="#251B07" points="645 295 660 310 660 382 645 397 630 382 630 310"/><polygon fill="#251B07" points="575 405 590 420 590 492 575 507 560 492 560 420"/><polygon fill="#251B07" points="645 405 660 420 660 492 645 507 630 492 630 420"/><polygon fill="#FFB300" points="579 291 594 276 626 276 641 291 626 306 594 306" filter="url(#g2)" opacity=".55"/><polygon fill="#FFB300" points="579 291 594 276 626 276 641 291 626 306 594 306"/><polygon fill="#FFB300" points="645 295 660 310 660 382 645 397 630 382 630 310" filter="url(#g2)" opacity=".55"/><polygon fill="#FFB300" points="645 295 660 310 660 382 645 397 630 382 630 310"/><polygon fill="#FFB300" points="645 405 660 420 660 492 645 507 630 492 630 420" filter="url(#g2)" opacity=".55"/><polygon fill="#FFB300" points="645 405 660 420 660 492 645 507 630 492 630 420"/><polygon fill="#251B07" points="705 291 720 276 752 276 767 291 752 306 720 306"/><polygon fill="#251B07" points="705 401 720 386 752 386 767 401 752 416 720 416"/><polygon fill="#251B07" points="705 511 720 496 752 496 767 511 752 526 720 526"/><polygon fill="#251B07" points="701 295 716 310 716 382 701 397 686 382 686 310"/><polygon fill="#251B07" points="771 295 786 310 786 382 771 397 756 382 756 310"/><polygon fill="#251B07" points="701 405 716 420 716 492 701 507 686 492 686 420"/><polygon fill="#251B07" points="771 405 786 420 786 492 771 507 756 492 756 420"/><polygon fill="#FFB300" points="705 401 720 386 752 386 767 401 752 416 720 416" filter="url(#g2)" opacity=".55"/><polygon fill="#FFB300" points="705 401 720 386 752 386 767 401 752 416 720 416"/><polygon fill="#FFB300" points="701 295 716 310 716 382 701 397 686 382 686 310" filter="url(#g2)" opacity=".55"/><polygon fill="#FFB300" points="701 295 716 310 716 382 701 397 686 382 686 310"/><polygon fill="#FFB300" points="771 295 786 310 786 382 771 397 756 382 756 310" filter="url(#g2)" opacity=".55"/><polygon fill="#FFB300" points="771 295 786 310 786 382 771 397 756 382 756 310"/><polygon fill="#FFB300" points="771 405 786 420 786 492 771 507 756 492 756 420" filter="url(#g2)" opacity=".55"/><polygon fill="#FFB300" points="771 405 786 420 786 492 771 507 756 492 756 420"/><text x="820" y="522" fill="#FFB300" font-family="DejaVu Sans Mono" font-size="64" font-weight="bold">MHz</text><text x="820" y="328" fill="#43E06B" font-family="DejaVu Sans Mono" font-size="52" font-weight="bold">USB</text></g><rect width="56" height="96" x="110" y="700" fill="#43E06B" opacity="1" rx="8"/><rect width="56" height="96" x="110" y="700" fill="#43E06B" filter="url(#g2)" opacity=".45" rx="8"/><text x="138" y="678" fill="#6B7480" font-family="DejaVu Sans Mono" font-size="36" text-anchor="middle">S1</text><rect width="56" height="96" x="178" y="700" fill="#43E06B" opacity="1" rx="8"/><rect width="56" height="96" x="178" y="700" fill="#43E06B" filter="url(#g2)" opacity=".45" rx="8"/><rect width="56" height="96" x="246" y="700" fill="#43E06B" opacity="1" rx="8"/><rect width="56" height="96" x="246" y="700" fill="#43E06B" filter="url(#g2)" opacity=".45" rx="8"/><text x="274" y="678" fill="#6B7480" font-family="DejaVu Sans Mono" font-size="36" text-anchor="middle">3</text><rect width="56" height="96" x="314" y="700" fill="#43E06B" opacity="1" rx="8"/><rect width="56" height="96" x="314" y="700" fill="#43E06B" filter="url(#g2)" opacity=".45" rx="8"/><rect width="56" height="96" x="382" y="700" fill="#43E06B" opacity="1" rx="8"/><rect width="56" height="96" x="382" y="700" fill="#43E06B" filter="url(#g2)" opacity=".45" rx="8"/><text x="410" y="678" fill="#6B7480" font-family="DejaVu Sans Mono" font-size="36" text-anchor="middle">5</text><rect width="56" height="96" x="450" y="700" fill="#43E06B" opacity="1" rx="8"/><rect width="56" height="96" x="450" y="700" fill="#43E06B" filter="url(#g2)" opacity=".45" rx="8"/><rect width="56" height="96" x="518" y="700" fill="#43E06B" opacity="1" rx="8"/><rect width="56" height="96" x="518" y="700" fill="#43E06B" filter="url(#g2)" opacity=".45" rx="8"/><text x="546" y="678" fill="#6B7480" font-family="DejaVu Sans Mono" font-size="36" text-anchor="middle">7</text><rect width="56" height="96" x="586" y="700" fill="#43E06B" opacity=".16" rx="8"/><rect width="56" height="96" x="654" y="700" fill="#43E06B" opacity=".16" rx="8"/><text x="682" y="678" fill="#6B7480" font-family="DejaVu Sans Mono" font-size="36" text-anchor="middle">9</text><rect width="56" height="96" x="722" y="700" fill="#FF5340" opacity=".16" rx="8"/><rect width="56" height="96" x="790" y="700" fill="#FF5340" opacity=".16" rx="8"/><text x="818" y="678" fill="#6B7480" font-family="DejaVu Sans Mono" font-size="36" text-anchor="middle">+20</text><rect width="56" height="96" x="858" y="700" fill="#FF5340" opacity=".16" rx="8"/></svg>